<svg width="435" height="108" viewBox="0 0 435 108" fill="none" xmlns="http://www.w3.org/2000/svg">
<path d="M434.443 107.274L412.429 100.294L429.48 84.7195L434.443 107.274ZM-1.09111e-05 82.2556C0.994661 81.3951 2.00858 80.5311 3.04142 79.6642L5.61293 82.7281C4.59519 83.5823 3.59647 84.4333 2.61708 85.2806L-1.09111e-05 82.2556ZM9.36247 74.5131C11.4554 72.856 13.6139 71.1929 15.836 69.5277L18.2347 72.7287C16.0407 74.3728 13.9102 76.0144 11.8454 77.6491L9.36247 74.5131ZM22.3584 64.7663C24.5283 63.2229 26.751 61.681 29.025 60.1441L31.2649 63.4581C29.0173 64.9773 26.8207 66.5009 24.6769 68.0258L22.3584 64.7663ZM35.8288 55.66C38.0774 54.2151 40.3705 52.7773 42.7068 51.3496L44.7926 54.7627C42.4821 56.1747 40.2145 57.5965 37.9912 59.0251L35.8288 55.66ZM49.663 47.2039C51.9864 45.8539 54.3483 44.5155 56.7473 43.1914L58.6802 46.6934C56.307 48.0032 53.9707 49.3271 51.6726 50.6624L49.663 47.2039ZM63.8914 39.3497C66.2657 38.1061 68.6732 36.878 71.1128 35.6673L72.8909 39.2504C70.4776 40.448 68.096 41.6629 65.7473 42.8931L63.8914 39.3497ZM78.4517 32.1255C80.8772 30.9877 83.3318 29.8684 85.8145 28.7696L87.4333 32.4274C84.9777 33.5142 82.5497 34.6213 80.1505 35.7468L78.4517 32.1255ZM93.2799 25.5645C95.7669 24.5294 98.2799 23.5159 100.818 22.526L102.271 26.2526C99.7617 27.2315 97.2765 28.2337 94.8168 29.2574L93.2799 25.5645ZM108.402 19.6667C110.941 18.7426 113.502 17.8429 116.087 16.9694L117.367 20.7588C114.813 21.6222 112.28 22.5117 109.77 23.4254L108.402 19.6667ZM123.789 14.4659C126.365 13.6618 128.962 12.8847 131.578 12.1362L132.678 15.9819C130.093 16.7215 127.527 17.4895 124.98 18.2842L123.789 14.4659ZM139.411 9.998C142.021 9.31958 144.649 8.67046 147.294 8.05226L148.205 11.9473C145.592 12.5579 142.995 13.1991 140.417 13.8694L139.411 9.998ZM155.238 6.30123C157.877 5.75453 160.532 5.23937 163.202 4.7573L163.913 8.69366C161.276 9.16958 158.655 9.67821 156.05 10.218L155.238 6.30123ZM171.237 3.41496C173.899 3.0063 176.575 2.63128 179.264 2.29139L179.766 6.25982C177.112 6.5952 174.472 6.96528 171.844 7.36864L171.237 3.41496ZM187.355 1.38029C190.038 1.11514 192.734 0.885736 195.441 0.693546L195.724 4.6835C193.054 4.87306 190.395 5.09933 187.748 5.3609L187.355 1.38029ZM203.564 0.231372C206.261 0.116088 208.969 0.0385081 211.686 9.21838e-07L211.743 3.99961C209.064 4.03756 206.394 4.11405 203.735 4.22773L203.564 0.231372ZM219.817 0.00237795C222.519 0.042418 225.229 0.121867 227.947 0.242079L227.77 4.23818C225.091 4.11971 222.42 4.0414 219.758 4.00194L219.817 0.00237795ZM236.059 0.721374C238.755 0.920924 241.458 1.16138 244.168 1.44399L243.753 5.42241C241.084 5.14398 238.42 4.90707 235.764 4.71046L236.059 0.721374ZM252.232 2.40825C254.912 2.76988 257.598 3.17362 260.289 3.62065L259.633 7.56657C256.983 7.12625 254.337 6.72856 251.697 6.37231L252.232 2.40825ZM268.274 5.07273C270.927 5.59715 273.585 6.1645 276.246 6.77597L275.35 10.6744C272.729 10.0721 270.112 9.51333 267.498 8.99681L268.274 5.07273ZM284.124 8.71313C286.739 9.3988 289.357 10.1279 291.978 10.9016L290.845 14.7379C288.264 13.9759 285.685 13.2577 283.109 12.5824L284.124 8.71313ZM299.721 13.3157C302.287 14.1589 304.855 15.0455 307.425 15.9768L306.062 19.7374C303.531 18.82 301.001 17.9465 298.472 17.1159L299.721 13.3157ZM315.01 18.8553C317.517 19.8497 320.025 20.8874 322.533 21.9693L320.948 25.6421C318.477 24.5759 316.006 23.5533 313.536 22.5735L315.01 18.8553ZM329.944 25.2965C332.382 26.4339 334.82 27.6139 337.256 28.8374L335.461 32.4121C333.059 31.2058 330.656 30.0425 328.253 28.9214L329.944 25.2965ZM344.484 32.5964C346.843 33.8665 349.202 35.1783 351.559 36.5325L349.567 40.0008C347.241 38.665 344.915 37.3712 342.588 36.1186L344.484 32.5964ZM358.6 40.7075C360.874 42.0987 363.147 43.5301 365.417 45.0026L363.241 48.3586C361 46.9052 358.757 45.4925 356.513 44.1198L358.6 40.7075ZM372.221 49.5438C374.423 51.055 376.622 52.6056 378.818 54.1962L376.471 57.4358C374.302 55.8648 372.131 54.3336 369.957 52.8415L372.221 49.5438ZM385.343 59.0475C387.485 60.6809 389.623 62.3531 391.758 64.0648L389.256 67.1856C387.146 65.494 385.033 63.8417 382.917 62.2279L385.343 59.0475ZM397.994 69.1848C400.069 70.9293 402.141 72.7118 404.209 74.533L401.565 77.5348C399.52 75.7338 397.471 73.9713 395.42 72.2466L397.994 69.1848ZM410.184 79.9132C412.16 81.7315 414.132 83.5859 416.1 85.4766L413.329 88.3612C411.382 86.4901 409.43 84.6554 407.475 82.8565L410.184 79.9132ZM421.933 91.199C423.809 93.078 425.681 94.9908 427.549 96.9379L424.662 99.7069C422.813 97.7789 420.959 95.8851 419.102 94.025L421.933 91.199Z" fill="#FBF3EE"/>
</svg>
